<svg width="219" height="55" viewBox="0 0 219 55" fill="none" xmlns="http://www.w3.org/2000/svg">
<rect x="0.5" y="0.5" width="218" height="54" rx="5.5" stroke="#2C5446"/>
<path fill-rule="evenodd" clip-rule="evenodd" d="M15.5 20C15.5 18.3431 16.8431 17 18.5 17H19.8716C20.732 17 21.482 17.5856 21.6906 18.4202L22.7964 22.8434C22.9794 23.5753 22.7059 24.3455 22.1024 24.7982L20.8088 25.7684C20.6745 25.8691 20.6453 26.0167 20.683 26.1197C21.8185 29.2195 24.2805 31.6815 27.3803 32.817C27.4833 32.8547 27.6309 32.8255 27.7316 32.6912L28.7018 31.3976C29.1545 30.7941 29.9247 30.5206 30.6566 30.7036L35.0798 31.8094C35.9144 32.018 36.5 32.768 36.5 33.6284V35C36.5 36.6569 35.1569 38 33.5 38H31.25C22.5515 38 15.5 30.9485 15.5 22.25V20Z" fill="#CBEA7B"/>
<path d="M48.464 33.1V29.356H44.72V27.844H48.464V24.1H49.976V27.844H53.72V29.356H49.976V33.1H48.464ZM55.6384 34L62.0284 22.912H54.8014V21.4H63.7744V22.912L57.3664 34H55.6384ZM67.781 35.008C67.169 34.426 66.674 33.778 66.296 33.064C65.918 32.35 65.642 31.585 65.468 30.769C65.294 29.947 65.207 29.092 65.207 28.204C65.207 27.736 65.243 27.238 65.315 26.71C65.387 26.176 65.495 25.645 65.639 25.117C65.783 24.583 65.957 24.076 66.161 23.596C66.371 23.116 66.611 22.687 66.881 22.309C67.151 21.925 67.451 21.622 67.781 21.4H69.293C68.999 21.664 68.726 21.988 68.474 22.372C68.222 22.75 67.991 23.173 67.781 23.641C67.571 24.103 67.388 24.592 67.232 25.108C67.076 25.624 66.953 26.146 66.863 26.674C66.779 27.196 66.731 27.706 66.719 28.204C66.737 29.146 66.857 30.034 67.079 30.868C67.307 31.702 67.61 32.467 67.988 33.163C68.372 33.859 68.807 34.474 69.293 35.008H67.781ZM73.2064 34L75.8974 29.356C75.2674 29.542 74.6464 29.575 74.0344 29.455C73.4284 29.329 72.8764 29.083 72.3784 28.717C71.8804 28.345 71.4814 27.877 71.1814 27.313C70.8814 26.749 70.7314 26.122 70.7314 25.432C70.7314 24.844 70.8424 24.292 71.0644 23.776C71.2864 23.26 71.5924 22.807 71.9824 22.417C72.3724 22.027 72.8224 21.721 73.3324 21.499C73.8484 21.277 74.4004 21.166 74.9884 21.166C75.7684 21.166 76.4764 21.358 77.1124 21.742C77.7544 22.126 78.2674 22.642 78.6514 23.29C79.0414 23.932 79.2364 24.646 79.2364 25.432C79.2364 25.858 79.1824 26.236 79.0744 26.566C78.9724 26.89 78.8164 27.244 78.6064 27.628L74.9524 34H73.2064ZM74.9704 28.177C75.5044 28.177 75.9784 28.051 76.3924 27.799C76.8124 27.541 77.1394 27.202 77.3734 26.782C77.6134 26.362 77.7334 25.912 77.7334 25.432C77.7334 24.91 77.6074 24.442 77.3554 24.028C77.1034 23.608 76.7674 23.278 76.3474 23.038C75.9274 22.792 75.4744 22.669 74.9884 22.669C74.4544 22.669 73.9774 22.798 73.5574 23.056C73.1434 23.314 72.8164 23.656 72.5764 24.082C72.3424 24.502 72.2254 24.952 72.2254 25.432C72.2254 25.936 72.3454 26.398 72.5854 26.818C72.8314 27.232 73.1614 27.562 73.5754 27.808C73.9954 28.054 74.4604 28.177 74.9704 28.177ZM84.5865 34.234C83.7885 34.234 83.0595 34.036 82.3995 33.64C81.7395 33.244 81.2115 32.716 80.8155 32.056C80.4195 31.39 80.2215 30.655 80.2215 29.851C80.2215 29.401 80.2725 29.008 80.3745 28.672C80.4825 28.336 80.6415 27.973 80.8515 27.583L84.4155 21.4H86.1705L83.6235 25.819C84.1395 25.657 84.6525 25.6 85.1625 25.648C85.6725 25.696 86.1555 25.834 86.6115 26.062C87.0735 26.29 87.4815 26.59 87.8355 26.962C88.1895 27.334 88.4685 27.766 88.6725 28.258C88.8765 28.744 88.9785 29.275 88.9785 29.851C88.9785 30.457 88.8615 31.024 88.6275 31.552C88.3995 32.08 88.0845 32.545 87.6825 32.947C87.2865 33.349 86.8215 33.664 86.2875 33.892C85.7535 34.12 85.1865 34.234 84.5865 34.234ZM84.5865 32.722C85.1385 32.722 85.6305 32.587 86.0625 32.317C86.5005 32.047 86.8425 31.693 87.0885 31.255C87.3405 30.817 87.4665 30.349 87.4665 29.851C87.4665 29.329 87.3375 28.852 87.0795 28.42C86.8275 27.988 86.4825 27.643 86.0445 27.385C85.6125 27.121 85.1325 26.989 84.6045 26.989C84.0525 26.989 83.5605 27.124 83.1285 27.394C82.6965 27.664 82.3545 28.015 82.1025 28.447C81.8565 28.879 81.7335 29.347 81.7335 29.851C81.7335 30.397 81.8655 30.886 82.1295 31.318C82.3935 31.75 82.7415 32.092 83.1735 32.344C83.6115 32.596 84.0825 32.722 84.5865 32.722ZM90.7068 34L97.0968 22.912H89.8698V21.4H98.8428V22.912L92.4348 34H90.7068ZM100.095 35.008C100.581 34.474 101.013 33.859 101.391 33.163C101.769 32.467 102.072 31.702 102.3 30.868C102.528 30.034 102.651 29.146 102.669 28.204C102.657 27.706 102.606 27.196 102.516 26.674C102.432 26.146 102.312 25.624 102.156 25.108C102 24.592 101.817 24.103 101.607 23.641C101.397 23.173 101.166 22.75 100.914 22.372C100.662 21.988 100.389 21.664 100.095 21.4H101.607C101.937 21.622 102.234 21.925 102.498 22.309C102.768 22.687 103.008 23.116 103.218 23.596C103.428 24.076 103.605 24.583 103.749 25.117C103.893 25.645 104.001 26.176 104.073 26.71C104.145 27.238 104.181 27.736 104.181 28.204C104.181 29.092 104.094 29.947 103.92 30.769C103.746 31.585 103.47 32.35 103.092 33.064C102.714 33.778 102.219 34.426 101.607 35.008H100.095ZM106.34 27.844H112.1V29.356H106.34V27.844ZM116.842 35.008C116.23 34.426 115.735 33.778 115.357 33.064C114.979 32.35 114.703 31.585 114.529 30.769C114.355 29.947 114.268 29.092 114.268 28.204C114.268 27.736 114.304 27.238 114.375 26.71C114.448 26.176 114.556 25.645 114.7 25.117C114.844 24.583 115.018 24.076 115.222 23.596C115.432 23.116 115.672 22.687 115.942 22.309C116.212 21.925 116.512 21.622 116.842 21.4H118.354C118.06 21.664 117.787 21.988 117.535 22.372C117.283 22.75 117.052 23.173 116.842 23.641C116.632 24.103 116.449 24.592 116.293 25.108C116.137 25.624 116.014 26.146 115.924 26.674C115.84 27.196 115.792 27.706 115.78 28.204C115.798 29.146 115.918 30.034 116.14 30.868C116.368 31.702 116.671 32.467 117.049 33.163C117.433 33.859 117.868 34.474 118.354 35.008H116.842ZM121.385 34V22.912H119.972L120.395 21.4H122.897V34H121.385ZM125.052 34V32.659C125.514 32.245 126.033 31.783 126.609 31.273C127.185 30.757 127.758 30.22 128.328 29.662C128.904 29.098 129.432 28.54 129.912 27.988C130.392 27.436 130.779 26.914 131.073 26.422C131.367 25.924 131.514 25.489 131.514 25.117C131.514 24.673 131.406 24.268 131.19 23.902C130.974 23.53 130.683 23.233 130.317 23.011C129.957 22.789 129.555 22.678 129.111 22.678C128.667 22.678 128.259 22.789 127.887 23.011C127.521 23.233 127.227 23.53 127.005 23.902C126.789 24.268 126.681 24.673 126.681 25.117H125.169C125.169 24.379 125.349 23.713 125.709 23.119C126.069 22.519 126.546 22.045 127.14 21.697C127.734 21.343 128.391 21.166 129.111 21.166C129.831 21.166 130.485 21.343 131.073 21.697C131.667 22.051 132.141 22.528 132.495 23.128C132.849 23.722 133.026 24.385 133.026 25.117C133.026 25.537 132.924 25.99 132.72 26.476C132.516 26.956 132.237 27.451 131.883 27.961C131.529 28.471 131.127 28.987 130.677 29.509C130.227 30.025 129.753 30.535 129.255 31.039C128.757 31.543 128.262 32.026 127.77 32.488H133.188V34H125.052ZM139.857 34V30.598H134.439V29.068L139.479 21.4H141.369V29.086H142.62V30.598H141.369V34H139.857ZM136.212 29.068L139.857 29.086L139.83 23.524L136.212 29.068ZM144.603 35.008C145.089 34.474 145.521 33.859 145.899 33.163C146.277 32.467 146.58 31.702 146.808 30.868C147.036 30.034 147.159 29.146 147.177 28.204C147.165 27.706 147.114 27.196 147.024 26.674C146.94 26.146 146.82 25.624 146.664 25.108C146.508 24.592 146.325 24.103 146.115 23.641C145.905 23.173 145.674 22.75 145.422 22.372C145.17 21.988 144.897 21.664 144.603 21.4H146.115C146.445 21.622 146.742 21.925 147.006 22.309C147.276 22.687 147.516 23.116 147.726 23.596C147.936 24.076 148.113 24.583 148.257 25.117C148.401 25.645 148.509 26.176 148.581 26.71C148.653 27.238 148.689 27.736 148.689 28.204C148.689 29.092 148.602 29.947 148.428 30.769C148.254 31.585 147.978 32.35 147.6 33.064C147.222 33.778 146.727 34.426 146.115 35.008H144.603ZM150.848 27.844H156.608V29.356H150.848V27.844ZM158.892 34L165.282 22.912H158.055V21.4H167.028V22.912L160.62 34H158.892ZM172.196 34.234C171.398 34.234 170.669 34.036 170.009 33.64C169.349 33.244 168.821 32.716 168.425 32.056C168.029 31.39 167.831 30.655 167.831 29.851C167.831 29.401 167.882 29.008 167.984 28.672C168.092 28.336 168.251 27.973 168.461 27.583L172.025 21.4H173.78L171.233 25.819C171.749 25.657 172.262 25.6 172.772 25.648C173.282 25.696 173.765 25.834 174.221 26.062C174.683 26.29 175.091 26.59 175.445 26.962C175.799 27.334 176.078 27.766 176.282 28.258C176.486 28.744 176.588 29.275 176.588 29.851C176.588 30.457 176.471 31.024 176.237 31.552C176.009 32.08 175.694 32.545 175.292 32.947C174.896 33.349 174.431 33.664 173.897 33.892C173.363 34.12 172.796 34.234 172.196 34.234ZM172.196 32.722C172.748 32.722 173.24 32.587 173.672 32.317C174.11 32.047 174.452 31.693 174.698 31.255C174.95 30.817 175.076 30.349 175.076 29.851C175.076 29.329 174.947 28.852 174.689 28.42C174.437 27.988 174.092 27.643 173.654 27.385C173.222 27.121 172.742 26.989 172.214 26.989C171.662 26.989 171.17 27.124 170.738 27.394C170.306 27.664 169.964 28.015 169.712 28.447C169.466 28.879 169.343 29.347 169.343 29.851C169.343 30.397 169.475 30.886 169.739 31.318C170.003 31.75 170.351 32.092 170.783 32.344C171.221 32.596 171.692 32.722 172.196 32.722ZM178.199 27.844H183.959V29.356H178.199V27.844ZM189.826 34.234C189.076 34.234 188.392 34.063 187.774 33.721C187.162 33.379 186.673 32.923 186.307 32.353C185.947 31.777 185.767 31.141 185.767 30.445C185.767 29.797 185.938 29.203 186.28 28.663C186.622 28.117 187.069 27.685 187.621 27.367C187.171 27.079 186.799 26.698 186.505 26.224C186.217 25.744 186.073 25.225 186.073 24.667C186.073 24.019 186.241 23.431 186.577 22.903C186.919 22.375 187.372 21.955 187.936 21.643C188.506 21.325 189.136 21.166 189.826 21.166C190.516 21.166 191.143 21.325 191.707 21.643C192.277 21.955 192.73 22.375 193.066 22.903C193.408 23.431 193.579 24.019 193.579 24.667C193.579 25.225 193.435 25.744 193.147 26.224C192.859 26.698 192.484 27.079 192.022 27.367C192.592 27.685 193.045 28.117 193.381 28.663C193.723 29.203 193.894 29.797 193.894 30.445C193.894 31.135 193.711 31.768 193.345 32.344C192.979 32.92 192.487 33.379 191.869 33.721C191.257 34.063 190.576 34.234 189.826 34.234ZM189.826 32.722C190.282 32.722 190.693 32.62 191.059 32.416C191.431 32.212 191.728 31.939 191.95 31.597C192.172 31.249 192.283 30.865 192.283 30.445C192.283 30.019 192.172 29.635 191.95 29.293C191.728 28.951 191.431 28.678 191.059 28.474C190.693 28.27 190.282 28.168 189.826 28.168C189.376 28.168 188.965 28.27 188.593 28.474C188.221 28.678 187.924 28.951 187.702 29.293C187.48 29.635 187.369 30.019 187.369 30.445C187.369 30.865 187.48 31.249 187.702 31.597C187.924 31.939 188.221 32.212 188.593 32.416C188.965 32.62 189.376 32.722 189.826 32.722ZM189.826 26.656C190.222 26.656 190.582 26.566 190.906 26.386C191.23 26.206 191.488 25.966 191.68 25.666C191.878 25.366 191.977 25.033 191.977 24.667C191.977 24.295 191.878 23.962 191.68 23.668C191.488 23.368 191.23 23.128 190.906 22.948C190.582 22.768 190.222 22.678 189.826 22.678C189.43 22.678 189.07 22.768 188.746 22.948C188.422 23.128 188.161 23.368 187.963 23.668C187.771 23.962 187.675 24.295 187.675 24.667C187.675 25.033 187.771 25.366 187.963 25.666C188.161 25.966 188.422 26.206 188.746 26.386C189.07 26.566 189.43 26.656 189.826 26.656ZM195.806 34L202.196 22.912H194.969V21.4H203.942V22.912L197.534 34H195.806Z" fill="#CBEA7B"/>
</svg>
